<?xml version="1.0" encoding="UTF-8"?>
<!DOCTYPE svg PUBLIC "-//W3C//DTD SVG 1.1//EN" "http://www.w3.org/Graphics/SVG/1.1/DTD/svg11.dtd">
<!-- Creator: CorelDRAW 2020 (64 Bit) -->
<svg xmlns="http://www.w3.org/2000/svg" xml:space="preserve" width="23.4061mm" height="8.2935mm" version="1.1" style="shape-rendering:geometricPrecision; text-rendering:geometricPrecision; image-rendering:optimizeQuality; fill-rule:evenodd; clip-rule:evenodd"
viewBox="0 0 468.85 166.13"
 xmlns:xlink="http://www.w3.org/1999/xlink"
 xmlns:xodm="http://www.corel.com/coreldraw/odm/2003">
 <defs>
  <style type="text/css">
   <![CDATA[
    .str3 {stroke:#EBD42F;stroke-width:6.2;stroke-linecap:round;stroke-linejoin:round;stroke-miterlimit:22.9256}
    .str0 {stroke:#EBD42F;stroke-width:7.84;stroke-linecap:round;stroke-linejoin:round;stroke-miterlimit:22.9256}
    .str2 {stroke:#EBD42F;stroke-width:5.88;stroke-linecap:round;stroke-linejoin:round;stroke-miterlimit:22.9256}
    .str1 {stroke:#EBD42F;stroke-width:8.04;stroke-linecap:round;stroke-linejoin:round;stroke-miterlimit:22.9256}
    .fil2 {fill:none}
    .fil0 {fill:none;fill-rule:nonzero}
    .fil3 {fill:#403C3C}
    .fil1 {fill:#403C3C;fill-rule:nonzero}
   ]]>
  </style>
 </defs>
 <g id="Camada_x0020_1">
  <metadata id="CorelCorpID_0Corel-Layer"/>
  <g>
   <path class="fil0 str0" d="M58.09 4.86l-8.28 42.07 -8.66 -42.07 -14.12 0 0 65.89 9.79 0 0 -45.18 9.32 45.18 6.96 0 9.32 -45.18 0 45.18 9.98 0 0 -65.89 -14.31 0zm40.38 66.83c9.6,0 16,-6.4 16,-15.91l0 -35.96c0,-9.51 -6.4,-15.91 -16,-15.91 -9.6,0 -16,6.4 -16,15.91l0 35.96c0,9.51 6.4,15.91 16,15.91zm0 -9.41c-3.67,0 -6.03,-2.35 -6.03,-6.49l0 -35.96c0,-4.14 2.35,-6.49 6.03,-6.49 3.67,0 6.02,2.35 6.02,6.49l0 35.96c0,4.14 -2.35,6.49 -6.02,6.49zm40.85 9.41c9.32,0 15.62,-6.4 15.62,-15.62l0 -9.41 -9.79 0 0 9.41c0,3.86 -2.35,6.21 -5.74,6.21 -3.39,0 -5.74,-2.35 -5.74,-6.21l0 -36.52c0,-3.86 2.35,-6.21 5.74,-6.21 3.39,0 5.74,2.35 5.74,6.21l0 7.72 9.79 0 0 -7.72c0,-9.22 -6.31,-15.62 -15.62,-15.62 -9.32,0 -15.63,6.4 -15.63,15.62l0 36.52c0,9.22 6.31,15.62 15.63,15.62zm34.73 -0.94l0 -28.71 11.86 0 0 28.71 9.98 0 0 -65.89 -9.98 0 0 27.77 -11.86 0 0 -27.77 -9.98 0 0 65.89 9.98 0zm32.75 0l9.98 0 0 -65.89 -9.98 0 0 65.89zm20.9 0l27.77 0 0 -9.41 -17.79 0 0 -56.47 -9.98 0 0 65.89zm35.48 0l28.33 0 0 -9.41 -18.35 0 0 -19.3 14.59 0 0 -9.41 -14.59 0 0 -18.35 18.35 0 0 -9.41 -28.33 0 0 65.89zm36.71 0l9.98 0 0 -65.89 -9.98 0 0 65.89zm53.65 0l-8.38 -29.46c4.33,-2.63 6.87,-7.34 6.87,-13.46l0 -7.25c0,-9.51 -6.12,-15.72 -15.62,-15.72l-15.63 0 0 65.89 9.98 0 0 -27.2 5.18 0 7.25 27.2 10.35 0zm-22.78 -56.47l5.18 0c3.86,0 6.12,2.26 6.12,6.12l0 7.62c0,3.86 -2.26,6.12 -6.12,6.12l-5.18 0 0 -19.86zm46.12 57.41c9.6,0 16,-6.4 16,-15.91l0 -35.96c0,-9.51 -6.4,-15.91 -16,-15.91 -9.6,0 -16,6.4 -16,15.91l0 35.96c0,9.51 6.4,15.91 16,15.91zm0 -9.41c-3.67,0 -6.03,-2.35 -6.03,-6.49l0 -35.96c0,-4.14 2.35,-6.49 6.03,-6.49 3.67,0 6.02,2.35 6.02,6.49l0 35.96c0,4.14 -2.35,6.49 -6.02,6.49z"/>
   <path id="1" class="fil1" d="M58.09 4.86l-8.28 42.07 -8.66 -42.07 -14.12 0 0 65.89 9.79 0 0 -45.18 9.32 45.18 6.96 0 9.32 -45.18 0 45.18 9.98 0 0 -65.89 -14.31 0zm40.38 66.83c9.6,0 16,-6.4 16,-15.91l0 -35.96c0,-9.51 -6.4,-15.91 -16,-15.91 -9.6,0 -16,6.4 -16,15.91l0 35.96c0,9.51 6.4,15.91 16,15.91zm0 -9.41c-3.67,0 -6.03,-2.35 -6.03,-6.49l0 -35.96c0,-4.14 2.35,-6.49 6.03,-6.49 3.67,0 6.02,2.35 6.02,6.49l0 35.96c0,4.14 -2.35,6.49 -6.02,6.49zm40.85 9.41c9.32,0 15.62,-6.4 15.62,-15.62l0 -9.41 -9.79 0 0 9.41c0,3.86 -2.35,6.21 -5.74,6.21 -3.39,0 -5.74,-2.35 -5.74,-6.21l0 -36.52c0,-3.86 2.35,-6.21 5.74,-6.21 3.39,0 5.74,2.35 5.74,6.21l0 7.72 9.79 0 0 -7.72c0,-9.22 -6.31,-15.62 -15.62,-15.62 -9.32,0 -15.63,6.4 -15.63,15.62l0 36.52c0,9.22 6.31,15.62 15.63,15.62zm34.73 -0.94l0 -28.71 11.86 0 0 28.71 9.98 0 0 -65.89 -9.98 0 0 27.77 -11.86 0 0 -27.77 -9.98 0 0 65.89 9.98 0zm32.75 0l9.98 0 0 -65.89 -9.98 0 0 65.89zm20.9 0l27.77 0 0 -9.41 -17.79 0 0 -56.47 -9.98 0 0 65.89zm35.48 0l28.33 0 0 -9.41 -18.35 0 0 -19.3 14.59 0 0 -9.41 -14.59 0 0 -18.35 18.35 0 0 -9.41 -28.33 0 0 65.89zm36.71 0l9.98 0 0 -65.89 -9.98 0 0 65.89zm53.65 0l-8.38 -29.46c4.33,-2.63 6.87,-7.34 6.87,-13.46l0 -7.25c0,-9.51 -6.12,-15.72 -15.62,-15.72l-15.63 0 0 65.89 9.98 0 0 -27.2 5.18 0 7.25 27.2 10.35 0zm-22.78 -56.47l5.18 0c3.86,0 6.12,2.26 6.12,6.12l0 7.62c0,3.86 -2.26,6.12 -6.12,6.12l-5.18 0 0 -19.86zm46.12 57.41c9.6,0 16,-6.4 16,-15.91l0 -35.96c0,-9.51 -6.4,-15.91 -16,-15.91 -9.6,0 -16,6.4 -16,15.91l0 35.96c0,9.51 6.4,15.91 16,15.91zm0 -9.41c-3.67,0 -6.03,-2.35 -6.03,-6.49l0 -35.96c0,-4.14 2.35,-6.49 6.03,-6.49 3.67,0 6.02,2.35 6.02,6.49l0 35.96c0,4.14 -2.35,6.49 -6.02,6.49z"/>
  </g>
  <g>
   <path class="fil0 str1" d="M32.35 151.25c-5.87,0 -10.86,-1.02 -14.98,-3.06 -4.12,-2.04 -7.31,-4.99 -9.57,-8.85 -2.27,-3.86 -3.49,-8.47 -3.68,-13.83 -0.06,-2.74 -0.1,-5.69 -0.1,-8.85 0,-3.16 0.03,-6.14 0.1,-8.95 0.19,-5.29 1.42,-9.83 3.68,-13.59 2.27,-3.76 5.49,-6.67 9.67,-8.71 4.18,-2.04 9.14,-3.06 14.88,-3.06 4.66,0 8.74,0.62 12.25,1.87 3.51,1.24 6.43,2.84 8.76,4.79 2.33,1.95 4.08,4.03 5.26,6.27 1.18,2.23 1.8,4.31 1.86,6.22 0.06,0.57 -0.09,1.05 -0.48,1.43 -0.38,0.38 -0.89,0.57 -1.53,0.57l-9.86 0c-0.64,0 -1.12,-0.13 -1.44,-0.38 -0.32,-0.25 -0.6,-0.64 -0.86,-1.15 -0.51,-1.34 -1.31,-2.66 -2.39,-3.97 -1.09,-1.31 -2.55,-2.41 -4.4,-3.3 -1.85,-0.89 -4.24,-1.34 -7.18,-1.34 -4.34,0 -7.8,1.15 -10.38,3.45 -2.58,2.3 -3.97,6.09 -4.16,11.39 -0.19,5.55 -0.19,11.17 0,16.84 0.19,5.42 1.61,9.31 4.26,11.68 2.65,2.36 6.14,3.54 10.48,3.54 2.87,0 5.44,-0.51 7.7,-1.53 2.26,-1.02 4.05,-2.62 5.36,-4.79 1.31,-2.17 1.96,-4.94 1.96,-8.32l0 -2.97 -11.67 0c-0.64,0 -1.18,-0.22 -1.63,-0.67 -0.44,-0.45 -0.67,-1.02 -0.67,-1.72l0 -5.07c0,-0.7 0.22,-1.28 0.67,-1.72 0.45,-0.45 0.99,-0.67 1.63,-0.67l22.87 0c0.7,0 1.26,0.22 1.67,0.67 0.42,0.45 0.62,1.02 0.62,1.72l0 10.05c0,5.36 -1.16,9.99 -3.49,13.88 -2.33,3.89 -5.65,6.89 -9.95,9 -4.31,2.11 -9.39,3.16 -15.26,3.16zm35.41 -0.96c-0.51,0 -0.97,-0.19 -1.39,-0.57 -0.41,-0.38 -0.62,-0.86 -0.62,-1.43 0,-0.26 0.06,-0.54 0.19,-0.86l23.07 -61.73c0.19,-0.64 0.56,-1.2 1.1,-1.68 0.54,-0.48 1.29,-0.72 2.25,-0.72l10.43 0c0.96,0 1.69,0.24 2.2,0.72 0.51,0.48 0.89,1.04 1.15,1.68l23.06 61.73c0.06,0.32 0.1,0.6 0.1,0.86 0,0.57 -0.19,1.05 -0.57,1.43 -0.38,0.38 -0.83,0.57 -1.34,0.57l-8.32 0c-0.89,0 -1.55,-0.21 -1.96,-0.62 -0.41,-0.41 -0.69,-0.81 -0.81,-1.2l-4.5 -11.68 -28.42 0 -4.5 11.68c-0.13,0.38 -0.4,0.78 -0.81,1.2 -0.41,0.41 -1.07,0.62 -1.96,0.62l-8.33 0zm18.95 -24.5l21.72 0 -10.91 -29.57 -10.81 29.57zm53.78 24.5c-0.64,0 -1.18,-0.22 -1.63,-0.67 -0.45,-0.45 -0.67,-0.99 -0.67,-1.63l0 -62.4c0,-0.64 0.22,-1.18 0.67,-1.63 0.45,-0.45 0.99,-0.67 1.63,-0.67l8.9 0c0.64,0 1.18,0.22 1.63,0.67 0.45,0.44 0.67,0.99 0.67,1.63l0 53.31 30.34 0c0.7,0 1.28,0.22 1.72,0.67 0.45,0.45 0.67,1.02 0.67,1.72l0 6.7c0,0.64 -0.22,1.18 -0.67,1.63 -0.45,0.45 -1.02,0.67 -1.72,0.67l-41.53 0zm112.83 0c-0.57,0 -1.05,-0.19 -1.43,-0.57 -0.38,-0.38 -0.57,-0.86 -0.57,-1.43 0,-0.19 0.03,-0.38 0.1,-0.57 0.06,-0.19 0.13,-0.38 0.19,-0.57l21.44 -31.01 -20.1 -29.67c-0.19,-0.38 -0.29,-0.77 -0.29,-1.15 0,-0.57 0.19,-1.05 0.57,-1.43 0.38,-0.38 0.86,-0.57 1.43,-0.57l9.76 0c0.77,0 1.37,0.19 1.82,0.57 0.45,0.38 0.83,0.8 1.15,1.24l14.07 20.67 14.16 -20.67c0.25,-0.45 0.62,-0.86 1.1,-1.24 0.48,-0.38 1.1,-0.57 1.87,-0.57l9.28 0c0.57,0 1.05,0.19 1.44,0.57 0.38,0.38 0.57,0.86 0.57,1.43 0,0.38 -0.13,0.77 -0.38,1.15l-20 29.67 21.44 31.01c0.13,0.19 0.22,0.38 0.29,0.57 0.06,0.19 0.1,0.38 0.1,0.57 0,0.57 -0.21,1.05 -0.62,1.43 -0.41,0.38 -0.88,0.57 -1.39,0.57l-10.15 0c-0.77,0 -1.37,-0.19 -1.82,-0.57 -0.45,-0.38 -0.8,-0.77 -1.05,-1.15l-15.31 -21.63 -15.03 21.63c-0.26,0.38 -0.61,0.77 -1.05,1.15 -0.45,0.38 -1.08,0.57 -1.91,0.57l-9.67 0zm69.38 0c-0.64,0 -1.18,-0.22 -1.63,-0.67 -0.45,-0.45 -0.67,-0.99 -0.67,-1.63l0 -62.4c0,-0.64 0.22,-1.18 0.67,-1.63 0.45,-0.45 0.99,-0.67 1.63,-0.67l9 0c0.7,0 1.26,0.22 1.67,0.67 0.41,0.44 0.62,0.99 0.62,1.63l0 62.4c0,0.64 -0.21,1.18 -0.62,1.63 -0.41,0.45 -0.97,0.67 -1.67,0.67l-9 0zm22.2 0c-0.51,0 -0.97,-0.19 -1.39,-0.57 -0.41,-0.38 -0.62,-0.86 -0.62,-1.43 0,-0.26 0.06,-0.54 0.19,-0.86l23.07 -61.73c0.19,-0.64 0.56,-1.2 1.1,-1.68 0.54,-0.48 1.29,-0.72 2.25,-0.72l10.43 0c0.96,0 1.69,0.24 2.2,0.72 0.51,0.48 0.89,1.04 1.15,1.68l23.06 61.73c0.06,0.32 0.1,0.6 0.1,0.86 0,0.57 -0.19,1.05 -0.57,1.43 -0.38,0.38 -0.83,0.57 -1.34,0.57l-8.32 0c-0.89,0 -1.55,-0.21 -1.96,-0.62 -0.41,-0.41 -0.69,-0.81 -0.81,-1.2l-4.5 -11.68 -28.42 0 -4.5 11.68c-0.13,0.38 -0.4,0.78 -0.81,1.2 -0.41,0.41 -1.07,0.62 -1.96,0.62l-8.33 0zm18.95 -24.5l21.72 0 -10.91 -29.57 -10.81 29.57zm73.79 25.46c-5.93,0 -10.89,-0.88 -14.88,-2.63 -3.99,-1.75 -7.02,-4.05 -9.09,-6.89 -2.07,-2.84 -3.17,-5.82 -3.3,-8.95 0,-0.57 0.19,-1.05 0.57,-1.44 0.38,-0.38 0.86,-0.57 1.43,-0.57l8.52 0c0.83,0 1.45,0.18 1.87,0.53 0.41,0.35 0.78,0.78 1.1,1.29 0.38,1.21 1.12,2.41 2.2,3.59 1.09,1.18 2.57,2.15 4.45,2.92 1.88,0.77 4.26,1.15 7.13,1.15 4.6,0 8.02,-0.77 10.29,-2.3 2.27,-1.53 3.4,-3.61 3.4,-6.22 0,-1.85 -0.61,-3.33 -1.82,-4.45 -1.21,-1.12 -3.08,-2.14 -5.6,-3.06 -2.52,-0.93 -5.86,-1.9 -10,-2.92 -4.79,-1.15 -8.79,-2.54 -12.01,-4.16 -3.22,-1.63 -5.65,-3.68 -7.27,-6.17 -1.63,-2.49 -2.44,-5.65 -2.44,-9.47 0,-3.7 1,-6.99 3.01,-9.86 2.01,-2.87 4.88,-5.14 8.61,-6.79 3.73,-1.66 8.18,-2.49 13.35,-2.49 4.15,0 7.81,0.56 11.01,1.67 3.19,1.12 5.84,2.58 7.94,4.4 2.11,1.82 3.72,3.76 4.83,5.84 1.12,2.07 1.71,4.1 1.77,6.08 0,0.51 -0.18,0.97 -0.53,1.39 -0.35,0.41 -0.85,0.62 -1.48,0.62l-8.9 0c-0.51,0 -1.02,-0.13 -1.53,-0.38 -0.51,-0.26 -0.93,-0.74 -1.24,-1.44 -0.38,-1.98 -1.63,-3.67 -3.73,-5.07 -2.11,-1.4 -4.82,-2.11 -8.13,-2.11 -3.45,0 -6.22,0.64 -8.33,1.91 -2.11,1.28 -3.16,3.26 -3.16,5.93 0,1.79 0.53,3.27 1.58,4.45 1.05,1.18 2.74,2.22 5.07,3.11 2.33,0.89 5.41,1.85 9.23,2.87 5.42,1.21 9.86,2.62 13.3,4.21 3.45,1.6 5.97,3.62 7.56,6.08 1.59,2.46 2.39,5.57 2.39,9.33 0,4.21 -1.13,7.8 -3.4,10.77 -2.27,2.97 -5.44,5.25 -9.52,6.84 -4.08,1.6 -8.84,2.39 -14.26,2.39z"/>
   <path id="1" class="fil1" d="M32.35 151.25c-5.87,0 -10.86,-1.02 -14.98,-3.06 -4.12,-2.04 -7.31,-4.99 -9.57,-8.85 -2.27,-3.86 -3.49,-8.47 -3.68,-13.83 -0.06,-2.74 -0.1,-5.69 -0.1,-8.85 0,-3.16 0.03,-6.14 0.1,-8.95 0.19,-5.29 1.42,-9.83 3.68,-13.59 2.27,-3.76 5.49,-6.67 9.67,-8.71 4.18,-2.04 9.14,-3.06 14.88,-3.06 4.66,0 8.74,0.62 12.25,1.87 3.51,1.24 6.43,2.84 8.76,4.79 2.33,1.95 4.08,4.03 5.26,6.27 1.18,2.23 1.8,4.31 1.86,6.22 0.06,0.57 -0.09,1.05 -0.48,1.43 -0.38,0.38 -0.89,0.57 -1.53,0.57l-9.86 0c-0.64,0 -1.12,-0.13 -1.44,-0.38 -0.32,-0.25 -0.6,-0.64 -0.86,-1.15 -0.51,-1.34 -1.31,-2.66 -2.39,-3.97 -1.09,-1.31 -2.55,-2.41 -4.4,-3.3 -1.85,-0.89 -4.24,-1.34 -7.18,-1.34 -4.34,0 -7.8,1.15 -10.38,3.45 -2.58,2.3 -3.97,6.09 -4.16,11.39 -0.19,5.55 -0.19,11.17 0,16.84 0.19,5.42 1.61,9.31 4.26,11.68 2.65,2.36 6.14,3.54 10.48,3.54 2.87,0 5.44,-0.51 7.7,-1.53 2.26,-1.02 4.05,-2.62 5.36,-4.79 1.31,-2.17 1.96,-4.94 1.96,-8.32l0 -2.97 -11.67 0c-0.64,0 -1.18,-0.22 -1.63,-0.67 -0.44,-0.45 -0.67,-1.02 -0.67,-1.72l0 -5.07c0,-0.7 0.22,-1.28 0.67,-1.72 0.45,-0.45 0.99,-0.67 1.63,-0.67l22.87 0c0.7,0 1.26,0.22 1.67,0.67 0.42,0.45 0.62,1.02 0.62,1.72l0 10.05c0,5.36 -1.16,9.99 -3.49,13.88 -2.33,3.89 -5.65,6.89 -9.95,9 -4.31,2.11 -9.39,3.16 -15.26,3.16zm35.41 -0.96c-0.51,0 -0.97,-0.19 -1.39,-0.57 -0.41,-0.38 -0.62,-0.86 -0.62,-1.43 0,-0.26 0.06,-0.54 0.19,-0.86l23.07 -61.73c0.19,-0.64 0.56,-1.2 1.1,-1.68 0.54,-0.48 1.29,-0.72 2.25,-0.72l10.43 0c0.96,0 1.69,0.24 2.2,0.72 0.51,0.48 0.89,1.04 1.15,1.68l23.06 61.73c0.06,0.32 0.1,0.6 0.1,0.86 0,0.57 -0.19,1.05 -0.57,1.43 -0.38,0.38 -0.83,0.57 -1.34,0.57l-8.32 0c-0.89,0 -1.55,-0.21 -1.96,-0.62 -0.41,-0.41 -0.69,-0.81 -0.81,-1.2l-4.5 -11.68 -28.42 0 -4.5 11.68c-0.13,0.38 -0.4,0.78 -0.81,1.2 -0.41,0.41 -1.07,0.62 -1.96,0.62l-8.33 0zm18.95 -24.5l21.72 0 -10.91 -29.57 -10.81 29.57zm53.78 24.5c-0.64,0 -1.18,-0.22 -1.63,-0.67 -0.45,-0.45 -0.67,-0.99 -0.67,-1.63l0 -62.4c0,-0.64 0.22,-1.18 0.67,-1.63 0.45,-0.45 0.99,-0.67 1.63,-0.67l8.9 0c0.64,0 1.18,0.22 1.63,0.67 0.45,0.44 0.67,0.99 0.67,1.63l0 53.31 30.34 0c0.7,0 1.28,0.22 1.72,0.67 0.45,0.45 0.67,1.02 0.67,1.72l0 6.7c0,0.64 -0.22,1.18 -0.67,1.63 -0.45,0.45 -1.02,0.67 -1.72,0.67l-41.53 0zm112.83 0c-0.57,0 -1.05,-0.19 -1.43,-0.57 -0.38,-0.38 -0.57,-0.86 -0.57,-1.43 0,-0.19 0.03,-0.38 0.1,-0.57 0.06,-0.19 0.13,-0.38 0.19,-0.57l21.44 -31.01 -20.1 -29.67c-0.19,-0.38 -0.29,-0.77 -0.29,-1.15 0,-0.57 0.19,-1.05 0.57,-1.43 0.38,-0.38 0.86,-0.57 1.43,-0.57l9.76 0c0.77,0 1.37,0.19 1.82,0.57 0.45,0.38 0.83,0.8 1.15,1.24l14.07 20.67 14.16 -20.67c0.25,-0.45 0.62,-0.86 1.1,-1.24 0.48,-0.38 1.1,-0.57 1.87,-0.57l9.28 0c0.57,0 1.05,0.19 1.44,0.57 0.38,0.38 0.57,0.86 0.57,1.43 0,0.38 -0.13,0.77 -0.38,1.15l-20 29.67 21.44 31.01c0.13,0.19 0.22,0.38 0.29,0.57 0.06,0.19 0.1,0.38 0.1,0.57 0,0.57 -0.21,1.05 -0.62,1.43 -0.41,0.38 -0.88,0.57 -1.39,0.57l-10.15 0c-0.77,0 -1.37,-0.19 -1.82,-0.57 -0.45,-0.38 -0.8,-0.77 -1.05,-1.15l-15.31 -21.63 -15.03 21.63c-0.26,0.38 -0.61,0.77 -1.05,1.15 -0.45,0.38 -1.08,0.57 -1.91,0.57l-9.67 0zm69.38 0c-0.64,0 -1.18,-0.22 -1.63,-0.67 -0.45,-0.45 -0.67,-0.99 -0.67,-1.63l0 -62.4c0,-0.64 0.22,-1.18 0.67,-1.63 0.45,-0.45 0.99,-0.67 1.63,-0.67l9 0c0.7,0 1.26,0.22 1.67,0.67 0.41,0.44 0.62,0.99 0.62,1.63l0 62.4c0,0.64 -0.21,1.18 -0.62,1.63 -0.41,0.45 -0.97,0.67 -1.67,0.67l-9 0zm22.2 0c-0.51,0 -0.97,-0.19 -1.39,-0.57 -0.41,-0.38 -0.62,-0.86 -0.62,-1.43 0,-0.26 0.06,-0.54 0.19,-0.86l23.07 -61.73c0.19,-0.64 0.56,-1.2 1.1,-1.68 0.54,-0.48 1.29,-0.72 2.25,-0.72l10.43 0c0.96,0 1.69,0.24 2.2,0.72 0.51,0.48 0.89,1.04 1.15,1.68l23.06 61.73c0.06,0.32 0.1,0.6 0.1,0.86 0,0.57 -0.19,1.05 -0.57,1.43 -0.38,0.38 -0.83,0.57 -1.34,0.57l-8.32 0c-0.89,0 -1.55,-0.21 -1.96,-0.62 -0.41,-0.41 -0.69,-0.81 -0.81,-1.2l-4.5 -11.68 -28.42 0 -4.5 11.68c-0.13,0.38 -0.4,0.78 -0.81,1.2 -0.41,0.41 -1.07,0.62 -1.96,0.62l-8.33 0zm18.95 -24.5l21.72 0 -10.91 -29.57 -10.81 29.57zm73.79 25.46c-5.93,0 -10.89,-0.88 -14.88,-2.63 -3.99,-1.75 -7.02,-4.05 -9.09,-6.89 -2.07,-2.84 -3.17,-5.82 -3.3,-8.95 0,-0.57 0.19,-1.05 0.57,-1.44 0.38,-0.38 0.86,-0.57 1.43,-0.57l8.52 0c0.83,0 1.45,0.18 1.87,0.53 0.41,0.35 0.78,0.78 1.1,1.29 0.38,1.21 1.12,2.41 2.2,3.59 1.09,1.18 2.57,2.15 4.45,2.92 1.88,0.77 4.26,1.15 7.13,1.15 4.6,0 8.02,-0.77 10.29,-2.3 2.27,-1.53 3.4,-3.61 3.4,-6.22 0,-1.85 -0.61,-3.33 -1.82,-4.45 -1.21,-1.12 -3.08,-2.14 -5.6,-3.06 -2.52,-0.93 -5.86,-1.9 -10,-2.92 -4.79,-1.15 -8.79,-2.54 -12.01,-4.16 -3.22,-1.63 -5.65,-3.68 -7.27,-6.17 -1.63,-2.49 -2.44,-5.65 -2.44,-9.47 0,-3.7 1,-6.99 3.01,-9.86 2.01,-2.87 4.88,-5.14 8.61,-6.79 3.73,-1.66 8.18,-2.49 13.35,-2.49 4.15,0 7.81,0.56 11.01,1.67 3.19,1.12 5.84,2.58 7.94,4.4 2.11,1.82 3.72,3.76 4.83,5.84 1.12,2.07 1.71,4.1 1.77,6.08 0,0.51 -0.18,0.97 -0.53,1.39 -0.35,0.41 -0.85,0.62 -1.48,0.62l-8.9 0c-0.51,0 -1.02,-0.13 -1.53,-0.38 -0.51,-0.26 -0.93,-0.74 -1.24,-1.44 -0.38,-1.98 -1.63,-3.67 -3.73,-5.07 -2.11,-1.4 -4.82,-2.11 -8.13,-2.11 -3.45,0 -6.22,0.64 -8.33,1.91 -2.11,1.28 -3.16,3.26 -3.16,5.93 0,1.79 0.53,3.27 1.58,4.45 1.05,1.18 2.74,2.22 5.07,3.11 2.33,0.89 5.41,1.85 9.23,2.87 5.42,1.21 9.86,2.62 13.3,4.21 3.45,1.6 5.97,3.62 7.56,6.08 1.59,2.46 2.39,5.57 2.39,9.33 0,4.21 -1.13,7.8 -3.4,10.77 -2.27,2.97 -5.44,5.25 -9.52,6.84 -4.08,1.6 -8.84,2.39 -14.26,2.39z"/>
  </g>
  <g>
   <path class="fil0 str2" d="M445.84 68.49l0 -9.08c0,-5.52 -3.61,-9.08 -9.13,-9.08l-20.01 0c-5.52,0 -9.13,3.55 -9.13,9.08l0 9.08 38.28 0zm-5.47 -5.8l-27.34 0 0 -3.01c0,-2.24 1.31,-3.56 3.56,-3.56l20.23 0c2.24,0 3.55,1.31 3.55,3.56l0 3.01zm5.47 -30.78l0 -5.91 -38.28 6.34 0 7.76 38.28 6.34 0 -5.8 -8.48 -1.26 0 -6.23 8.48 -1.26zm-14.05 6.72l-16.02 -2.35 16.02 -2.35 0 4.7zm14.6 -25.15c0,-5.52 -3.94,-9.35 -9.4,-9.35 -4.21,0 -7,1.8 -12.58,7.38 -4.1,4.1 -5.85,5.3 -8.26,5.3 -2.41,0 -3.66,-1.15 -3.66,-3.17 0,-2.02 1.53,-3.17 4.48,-3.17l1.09 0 -0.6 -5.58 -0.98 0c-5.74,0 -9.46,3.28 -9.46,8.8 0,5.52 3.72,8.8 9.41,8.8 4.21,0 7.16,-1.64 12.58,-7.38 4.1,-4.32 5.85,-5.3 8.26,-5.3 2.24,0 3.66,1.42 3.66,3.72 0,2.3 -1.69,3.72 -4.48,3.72l-1.42 0 0.6 5.58 1.37 0c5.47,0 9.4,-3.83 9.4,-9.35z"/>
   <path id="1" class="fil1" d="M445.84 68.49l0 -9.08c0,-5.52 -3.61,-9.08 -9.13,-9.08l-20.01 0c-5.52,0 -9.13,3.55 -9.13,9.08l0 9.08 38.28 0zm-5.47 -5.8l-27.34 0 0 -3.01c0,-2.24 1.31,-3.56 3.56,-3.56l20.23 0c2.24,0 3.55,1.31 3.55,3.56l0 3.01zm5.47 -30.78l0 -5.91 -38.28 6.34 0 7.76 38.28 6.34 0 -5.8 -8.48 -1.26 0 -6.23 8.48 -1.26zm-14.05 6.72l-16.02 -2.35 16.02 -2.35 0 4.7zm14.6 -25.15c0,-5.52 -3.94,-9.35 -9.4,-9.35 -4.21,0 -7,1.8 -12.58,7.38 -4.1,4.1 -5.85,5.3 -8.26,5.3 -2.41,0 -3.66,-1.15 -3.66,-3.17 0,-2.02 1.53,-3.17 4.48,-3.17l1.09 0 -0.6 -5.58 -0.98 0c-5.74,0 -9.46,3.28 -9.46,8.8 0,5.52 3.72,8.8 9.41,8.8 4.21,0 7.16,-1.64 12.58,-7.38 4.1,-4.32 5.85,-5.3 8.26,-5.3 2.24,0 3.66,1.42 3.66,3.72 0,2.3 -1.69,3.72 -4.48,3.72l-1.42 0 0.6 5.58 1.37 0c5.47,0 9.4,-3.83 9.4,-9.35z"/>
  </g>
  <g>
   <path class="fil2 str3" d="M250.79 141c1.05,0.8 3.31,4.83 3.83,5.9 1.86,3.78 5.41,11.49 -2.48,11.49 -4.4,0 -10.44,-2.9 -13.91,-4.55 0.73,-0.78 2.53,-1.92 3.46,-2.69 3.14,-2.57 7.18,-6.71 9.1,-10.15zm1.13 -19.31c-0.22,0.88 -0.92,1.88 -1.37,2.27 -0.65,0.55 -1.44,1.19 -2.13,1.73 -0.69,0.54 -1.49,1.23 -2.08,1.78 -0.54,0.5 -1.34,1.23 -2.39,1.48 -3.09,0.74 -4.35,-1.24 -5.32,-2.34 -1.17,-1.32 -2.72,-2.79 -2,-5.43 0.42,-1.57 2.32,-3.01 3.52,-3.98 2.92,-2.39 5.65,-5.89 9.83,-0.85 1.07,1.29 2.64,2.69 1.96,5.33zm-9.31 -23.83c3.43,-1.13 5.04,1.85 6.42,3.34 2.07,2.23 1.95,5.02 -0.43,7.07l-8.35 7.11c-4.86,4.49 -6.81,1.94 -9.66,-1.3 -3.65,-4.14 0.39,-6.98 3.31,-9.35 2.15,-1.75 6.42,-6.11 8.71,-6.86zm-7.76 -10.97c3.37,-0.9 5.06,2 6.45,3.59 3.85,4.44 -1.56,7.56 -3.62,9.44 -1.48,1.36 -7.14,6.4 -8.69,6.76 -1.55,0.36 -3.02,-0.11 -3.99,-0.97 -3.06,-2.72 -5.57,-6.29 -1.72,-9.66 1.85,-1.62 3.7,-3.02 5.57,-4.73 1.27,-1.16 4.43,-4.01 5.99,-4.43zm-62.4 10.45c-0.31,-0.86 -1.35,-2.25 -1.93,-3.23 -1.63,-2.75 -4.74,-8.43 -3.24,-11.6 1.73,-3.65 8.63,-1.53 11.81,-0.41 0.85,0.3 3.03,1.06 3.53,1.66 -3.97,3.13 -7.01,8.19 -9.51,12.72 -0.05,0.09 -0.18,0.32 -0.27,0.43 -0.39,0.54 0.1,0.01 -0.39,0.42zm13.22 -16.24c-1.58,-0.44 -4.03,-1.78 -5.89,-2.48 -5.24,-1.97 -15.74,-5.25 -18.48,0.71 -3.12,6.8 6.06,19.26 8.65,23.07 0.8,1.18 -0.36,3.55 -0.87,6.58 -2.64,15.71 3.43,31.66 14.84,41.26 0.57,-0.31 16.67,-14.98 17.02,-15.68l-4.71 -4.15c-3.18,-2.49 -14.43,-13.55 -17.48,-17.28 -2.35,-2.88 -5.5,-6.04 -7.77,-9.41 -0.7,-1.03 -0.01,-1.86 0.43,-3.12 0.35,-1 0.75,-2.29 1.37,-2.92l3.54 4.8c4.29,5.3 5.08,6.12 9.51,10.87 2.18,2.34 15.67,15.52 19.12,17.75 1.19,-0.57 2.93,-2.77 3.24,-4.9 0.36,-2.43 -0.82,-4.69 -1.84,-6.13 -2.24,-3.15 -4.63,-5.4 -6.57,-9.3 -2.55,-5.13 0.1,-3.85 -6.18,-9.7 -4.88,-4.54 -8.92,-1.87 -11.85,-3.98 -0.42,-3.41 8.03,-8.78 14.54,-5.15 2.87,1.6 9.46,7.74 11.6,10.29 3.07,3.68 5.17,2.63 9.47,4.91 5.97,3.16 10.41,8.52 12.58,16.4 1.67,6.08 1.29,12.94 -1.08,18.84l-2.31 4.9c0.9,0.32 1.94,1.12 2.85,1.68l5.72 3.3c0.72,0.37 2.24,1.12 2.8,1.56 -1.19,0.81 -2.18,1.41 -3.58,2.2 -1.13,0.64 -0.98,0.58 -2.08,-0.05l-9.07 -5.12c-3.05,2.76 -5.09,5.1 -7.97,7.72 -0.72,0.65 -2.26,1.91 -2.62,2.66 7.15,0 13.04,-1.18 19.31,-3.99 1.52,-0.68 1.22,-0.78 2.72,0 5.63,2.94 21.91,9.94 25.5,2.46 2.39,-4.97 -2.31,-13.15 -4.69,-17.26 -3.34,-5.77 -3.29,-2.98 -1.37,-7.25 3.21,-7.19 4.66,-14.49 3.95,-22.58 -2.95,-34 -40.38,-51.43 -67.98,-34.57 -1.28,0.78 -3.51,2.18 -4.36,3.06z"/>
   <path id="1" class="fil3" d="M250.79 141c1.05,0.8 3.31,4.83 3.83,5.9 1.86,3.78 5.41,11.49 -2.48,11.49 -4.4,0 -10.44,-2.9 -13.91,-4.55 0.73,-0.78 2.53,-1.92 3.46,-2.69 3.14,-2.57 7.18,-6.71 9.1,-10.15zm1.13 -19.31c-0.22,0.88 -0.92,1.88 -1.37,2.27 -0.65,0.55 -1.44,1.19 -2.13,1.73 -0.69,0.54 -1.49,1.23 -2.08,1.78 -0.54,0.5 -1.34,1.23 -2.39,1.48 -3.09,0.74 -4.35,-1.24 -5.32,-2.34 -1.17,-1.32 -2.72,-2.79 -2,-5.43 0.42,-1.57 2.32,-3.01 3.52,-3.98 2.92,-2.39 5.65,-5.89 9.83,-0.85 1.07,1.29 2.64,2.69 1.96,5.33zm-9.31 -23.83c3.43,-1.13 5.04,1.85 6.42,3.34 2.07,2.23 1.95,5.02 -0.43,7.07l-8.35 7.11c-4.86,4.49 -6.81,1.94 -9.66,-1.3 -3.65,-4.14 0.39,-6.98 3.31,-9.35 2.15,-1.75 6.42,-6.11 8.71,-6.86zm-7.76 -10.97c3.37,-0.9 5.06,2 6.45,3.59 3.85,4.44 -1.56,7.56 -3.62,9.44 -1.48,1.36 -7.14,6.4 -8.69,6.76 -1.55,0.36 -3.02,-0.11 -3.99,-0.97 -3.06,-2.72 -5.57,-6.29 -1.72,-9.66 1.85,-1.62 3.7,-3.02 5.57,-4.73 1.27,-1.16 4.43,-4.01 5.99,-4.43zm-62.4 10.45c-0.31,-0.86 -1.35,-2.25 -1.93,-3.23 -1.63,-2.75 -4.74,-8.43 -3.24,-11.6 1.73,-3.65 8.63,-1.53 11.81,-0.41 0.85,0.3 3.03,1.06 3.53,1.66 -3.97,3.13 -7.01,8.19 -9.51,12.72 -0.05,0.09 -0.18,0.32 -0.27,0.43 -0.39,0.54 0.1,0.01 -0.39,0.42zm13.22 -16.24c-1.58,-0.44 -4.03,-1.78 -5.89,-2.48 -5.24,-1.97 -15.74,-5.25 -18.48,0.71 -3.12,6.8 6.06,19.26 8.65,23.07 0.8,1.18 -0.36,3.55 -0.87,6.58 -2.64,15.71 3.43,31.66 14.84,41.26 0.57,-0.31 16.67,-14.98 17.02,-15.68l-4.71 -4.15c-3.18,-2.49 -14.43,-13.55 -17.48,-17.28 -2.35,-2.88 -5.5,-6.04 -7.77,-9.41 -0.7,-1.03 -0.01,-1.86 0.43,-3.12 0.35,-1 0.75,-2.29 1.37,-2.92l3.54 4.8c4.29,5.3 5.08,6.12 9.51,10.87 2.18,2.34 15.67,15.52 19.12,17.75 1.19,-0.57 2.93,-2.77 3.24,-4.9 0.36,-2.43 -0.82,-4.69 -1.84,-6.13 -2.24,-3.15 -4.63,-5.4 -6.57,-9.3 -2.55,-5.13 0.1,-3.85 -6.18,-9.7 -4.88,-4.54 -8.92,-1.87 -11.85,-3.98 -0.42,-3.41 8.03,-8.78 14.54,-5.15 2.87,1.6 9.46,7.74 11.6,10.29 3.07,3.68 5.17,2.63 9.47,4.91 5.97,3.16 10.41,8.52 12.58,16.4 1.67,6.08 1.29,12.94 -1.08,18.84l-2.31 4.9c0.9,0.32 1.94,1.12 2.85,1.68l5.72 3.3c0.72,0.37 2.24,1.12 2.8,1.56 -1.19,0.81 -2.18,1.41 -3.58,2.2 -1.13,0.64 -0.98,0.58 -2.08,-0.05l-9.07 -5.12c-3.05,2.76 -5.09,5.1 -7.97,7.72 -0.72,0.65 -2.26,1.91 -2.62,2.66 7.15,0 13.04,-1.18 19.31,-3.99 1.52,-0.68 1.22,-0.78 2.72,0 5.63,2.94 21.91,9.94 25.5,2.46 2.39,-4.97 -2.31,-13.15 -4.69,-17.26 -3.34,-5.77 -3.29,-2.98 -1.37,-7.25 3.21,-7.19 4.66,-14.49 3.95,-22.58 -2.95,-34 -40.38,-51.43 -67.98,-34.57 -1.28,0.78 -3.51,2.18 -4.36,3.06z"/>
  </g>
 </g>
</svg>
